<?xml version="1.0" encoding="utf-8"?>
<!-- Generator: Adobe Illustrator 25.3.1, SVG Export Plug-In . SVG Version: 6.00 Build 0)  -->
<svg version="1.1" id="Layer_1" xmlns="http://www.w3.org/2000/svg" xmlns:xlink="http://www.w3.org/1999/xlink" x="0px" y="0px"
	 viewBox="0 0 250 150" style="enable-background:new 0 0 250 150;" xml:space="preserve">
<style type="text/css">
	.st0{fill:#F5DF4E;stroke:#F5DF4E;stroke-width:8;stroke-miterlimit:10;}
	.st1{fill:#212529;}
</style>
<g>
	<g>
		<path class="st0" d="M7,34.1c0-1.2,0.4-2.3,1.3-3.1c0.8-0.8,1.9-1.3,3.1-1.3c1.2,0,2.3,0.4,3.1,1.3c0.8,0.8,1.3,1.9,1.3,3.1v77.4
			h45.5c1.2,0,2.3,0.4,3.1,1.3c0.8,0.8,1.3,1.9,1.3,3.1c0,1.2-0.4,2.3-1.3,3.1c-0.8,0.8-1.9,1.3-3.1,1.3H11.4
			c-1.2,0-2.3-0.4-3.1-1.3c-0.8-0.8-1.3-1.9-1.3-3.1V34.1z"/>
		<path class="st0" d="M68,36.7c0-1.6,0.6-3,1.7-4.1c1.1-1.1,2.5-1.7,4.1-1.7c1.6,0,3,0.6,4.1,1.7c1.1,1.1,1.7,2.5,1.7,4.1
			c0,1.6-0.6,3-1.7,4.1c-1.1,1.1-2.5,1.7-4.1,1.7c-1.6,0-3-0.6-4.1-1.7S68,38.3,68,36.7z M69.4,56.1c0-1.2,0.4-2.3,1.3-3.1
			c0.8-0.8,1.9-1.3,3.1-1.3c1.2,0,2.3,0.4,3.1,1.3c0.8,0.8,1.3,1.9,1.3,3.1v59.8c0,1.2-0.4,2.3-1.3,3.1c-0.8,0.8-1.9,1.3-3.1,1.3
			c-1.2,0-2.3-0.4-3.1-1.3c-0.8-0.8-1.3-1.9-1.3-3.1V56.1z"/>
		<path class="st0" d="M119,52c4.5,0,8.8,0.9,12.9,2.7c4.1,1.8,7.7,4.3,10.8,7.4c3.1,3.1,5.6,6.7,7.4,10.9c1.8,4.1,2.7,8.6,2.7,13.2
			V116c0,1.2-0.4,2.3-1.3,3.1c-0.8,0.8-1.9,1.3-3.1,1.3c-1.2,0-2.3-0.4-3.1-1.3c-0.8-0.8-1.3-1.9-1.3-3.1v-8.6
			c-3.1,3.5-6.8,6.5-11.2,8.9c-4.4,2.5-9.1,3.7-14.2,3.7c-4.7,0-9.1-0.8-13.2-2.5c-4.1-1.7-7.7-4-10.8-7c-3.1-3-5.5-6.6-7.3-10.7
			c-1.8-4.1-2.7-8.6-2.7-13.5c0-4.7,0.9-9.1,2.6-13.2c1.7-4.1,4.1-7.7,7.2-10.7c3.1-3.1,6.7-5.5,10.9-7.3
			C109.6,53.2,114.1,52.2,119,52z M93.5,86.3c0,3.5,0.7,6.7,2,9.8c1.3,3.1,3.1,5.7,5.4,8c2.3,2.3,5,4.1,8,5.4c3.1,1.3,6.3,2,9.8,2
			c3.4,0,6.6-0.6,9.6-1.9c3-1.3,5.7-3,8-5.3c2.3-2.3,4.1-4.9,5.5-8c1.4-3.1,2.1-6.4,2.3-10.1c0-3.5-0.7-6.8-2-9.9
			c-1.3-3.1-3.1-5.8-5.4-8.1c-2.3-2.3-5-4.1-8.1-5.4c-3.1-1.3-6.4-2-9.9-2c-3.5,0-6.7,0.7-9.8,2c-3.1,1.3-5.7,3.1-8,5.4
			c-2.3,2.3-4.1,5-5.4,8.1C94.2,79.5,93.5,82.8,93.5,86.3z"/>
		<path class="st0" d="M197.7,75c-0.2-4.1-1.7-7.6-4.4-10.3c-2.8-2.7-6.1-4.1-9.9-4.1c-2,0-3.8,0.4-5.6,1.1
			c-1.7,0.8-3.2,1.8-4.5,3.1c-1.3,1.3-2.3,2.8-3,4.6c-0.8,1.7-1.1,3.6-1.1,5.6v40.9c0,1.2-0.4,2.3-1.3,3.1c-0.8,0.8-1.9,1.3-3.1,1.3
			c-1.2,0-2.3-0.4-3.1-1.3c-0.8-0.8-1.3-1.9-1.3-3.1V75c0-3.2,0.6-6.2,1.8-9c1.2-2.8,2.8-5.3,4.9-7.3c2.1-2.1,4.5-3.7,7.3-4.9
			c2.8-1.2,5.8-1.8,9-1.8c3.9,0,7.5,0.9,10.7,2.6c3.2,1.7,5.8,4.1,7.9,7c2.2-2.9,4.8-5.2,8-7c3.2-1.7,6.8-2.6,10.7-2.6
			c3.2,0,6.2,0.6,9,1.8c2.8,1.2,5.3,2.9,7.3,4.9c2.1,2.1,3.7,4.5,4.9,7.3c1.2,2.8,1.8,5.8,1.8,9v40.9c0,1.2-0.4,2.3-1.3,3.1
			c-0.8,0.8-1.9,1.3-3.1,1.3c-1.2,0-2.3-0.4-3.1-1.3c-0.8-0.8-1.3-1.9-1.3-3.1V75c0-2-0.4-3.8-1.1-5.6c-0.8-1.7-1.8-3.3-3.1-4.6
			c-1.3-1.3-2.8-2.3-4.6-3.1c-1.7-0.8-3.6-1.1-5.6-1.1c-2,0-3.8,0.4-5.6,1.1c-1.7,0.8-3.2,1.8-4.5,3.1c-1.3,1.3-2.3,2.8-3,4.6
			c-0.8,1.7-1.1,3.6-1.1,5.6v24c0,1.2-0.4,2.3-1.3,3.1c-0.8,0.8-1.9,1.3-3.1,1.3c-1.2,0-2.3-0.4-3.1-1.3c-0.8-0.8-1.3-1.9-1.3-3.1
			V75z"/>
	</g>
	<g>
		<path class="st1" d="M10.2,34c0-1.2,0.4-2.3,1.3-3.1c0.8-0.8,1.9-1.3,3.1-1.3c1.2,0,2.3,0.4,3.1,1.3c0.8,0.8,1.3,1.9,1.3,3.1v77.4
			h45.5c1.2,0,2.3,0.4,3.1,1.3c0.8,0.8,1.3,1.9,1.3,3.1c0,1.2-0.4,2.3-1.3,3.1c-0.8,0.8-1.9,1.3-3.1,1.3H14.6
			c-1.2,0-2.3-0.4-3.1-1.3c-0.8-0.8-1.3-1.9-1.3-3.1V34z"/>
		<path class="st1" d="M71.3,36.5c0-1.6,0.6-3,1.7-4.1c1.1-1.1,2.5-1.7,4.1-1.7c1.6,0,3,0.6,4.1,1.7c1.1,1.1,1.7,2.5,1.7,4.1
			c0,1.6-0.6,3-1.7,4.1s-2.5,1.7-4.1,1.7c-1.6,0-3-0.6-4.1-1.7C71.8,39.5,71.3,38.1,71.3,36.5z M72.7,56c0-1.2,0.4-2.3,1.3-3.1
			c0.8-0.8,1.9-1.3,3.1-1.3c1.2,0,2.3,0.4,3.1,1.3c0.8,0.8,1.3,1.9,1.3,3.1v59.8c0,1.2-0.4,2.3-1.3,3.1c-0.8,0.8-1.9,1.3-3.1,1.3
			c-1.2,0-2.3-0.4-3.1-1.3c-0.8-0.8-1.3-1.9-1.3-3.1V56z"/>
		<path class="st1" d="M122.3,51.9c4.5,0,8.8,0.9,12.9,2.7c4.1,1.8,7.7,4.3,10.8,7.4c3.1,3.1,5.6,6.7,7.4,10.9
			c1.8,4.1,2.7,8.6,2.7,13.2v29.7c0,1.2-0.4,2.3-1.3,3.1c-0.8,0.8-1.9,1.3-3.1,1.3c-1.2,0-2.3-0.4-3.1-1.3c-0.8-0.8-1.3-1.9-1.3-3.1
			v-8.6c-3.1,3.5-6.8,6.5-11.2,8.9c-4.4,2.5-9.1,3.7-14.2,3.7c-4.7,0-9.1-0.8-13.2-2.5c-4.1-1.7-7.7-4-10.8-7
			c-3.1-3-5.5-6.6-7.3-10.7C88.9,95.5,88,91,88,86.1c0-4.7,0.9-9.1,2.6-13.2c1.7-4.1,4.1-7.7,7.2-10.7c3.1-3.1,6.7-5.5,10.9-7.3
			C112.9,53.1,117.4,52.1,122.3,51.9z M96.8,86.1c0,3.5,0.7,6.7,2,9.8c1.3,3.1,3.1,5.7,5.4,8c2.3,2.3,5,4.1,8,5.4
			c3.1,1.3,6.3,2,9.8,2c3.4,0,6.6-0.6,9.6-1.9c3-1.3,5.7-3,8-5.3c2.3-2.3,4.1-4.9,5.5-8c1.4-3.1,2.1-6.4,2.3-10.1
			c0-3.5-0.7-6.8-2-9.9c-1.3-3.1-3.1-5.8-5.4-8.1c-2.3-2.3-5-4.1-8.1-5.4c-3.1-1.3-6.4-2-9.9-2c-3.5,0-6.7,0.7-9.8,2
			c-3.1,1.3-5.7,3.1-8,5.4c-2.3,2.3-4.1,5-5.4,8.1C97.4,79.4,96.8,82.6,96.8,86.1z"/>
		<path class="st1" d="M200.9,74.9c-0.2-4.1-1.7-7.6-4.4-10.3c-2.8-2.7-6.1-4.1-9.9-4.1c-2,0-3.8,0.4-5.6,1.1
			c-1.7,0.8-3.2,1.8-4.5,3.1c-1.3,1.3-2.3,2.8-3,4.6c-0.8,1.7-1.1,3.6-1.1,5.6v40.9c0,1.2-0.4,2.3-1.3,3.1c-0.8,0.8-1.9,1.3-3.1,1.3
			c-1.2,0-2.3-0.4-3.1-1.3c-0.8-0.8-1.3-1.9-1.3-3.1V74.9c0-3.2,0.6-6.2,1.8-9c1.2-2.8,2.8-5.3,4.9-7.3c2.1-2.1,4.5-3.7,7.3-4.9
			c2.8-1.2,5.8-1.8,9-1.8c3.9,0,7.5,0.9,10.7,2.6c3.2,1.7,5.8,4.1,7.9,7c2.2-2.9,4.8-5.2,8-7c3.2-1.7,6.8-2.6,10.7-2.6
			c3.2,0,6.2,0.6,9,1.8c2.8,1.2,5.3,2.9,7.3,4.9c2.1,2.1,3.7,4.5,4.9,7.3c1.2,2.8,1.8,5.8,1.8,9v40.9c0,1.2-0.4,2.3-1.3,3.1
			c-0.8,0.8-1.9,1.3-3.1,1.3c-1.2,0-2.3-0.4-3.1-1.3c-0.8-0.8-1.3-1.9-1.3-3.1V74.9c0-2-0.4-3.8-1.1-5.6c-0.8-1.7-1.8-3.3-3.1-4.6
			c-1.3-1.3-2.8-2.3-4.6-3.1c-1.7-0.8-3.6-1.1-5.6-1.1c-2,0-3.8,0.4-5.6,1.1c-1.7,0.8-3.2,1.8-4.5,3.1c-1.3,1.3-2.3,2.8-3,4.6
			c-0.8,1.7-1.1,3.6-1.1,5.6v24c0,1.2-0.4,2.3-1.3,3.1c-0.8,0.8-1.9,1.3-3.1,1.3c-1.2,0-2.3-0.4-3.1-1.3c-0.8-0.8-1.3-1.9-1.3-3.1
			V74.9z"/>
	</g>
</g>
</svg>
